<svg width="28" height="28" viewBox="0 0 28 28" fill="currentColor" xmlns="http://www.w3.org/2000/svg">
<path d="M11.997 5.38625C11.1096 4.07456 10.2009 2.96825 9.38138 2.20294C8.9742 1.80473 8.5107 1.46854 8.00575 1.20512C7.58532 1.00362 6.92075 0.807935 6.29688 1.16637C5.58582 1.57906 5.46957 2.387 5.46375 2.90237C5.45794 3.49137 5.58775 4.18887 5.79894 4.92512C6.17869 6.25619 6.87619 7.88562 7.80425 9.579L1.457 15.9262C0.920316 16.4629 0.935816 17.1972 1.03463 17.7049C1.14119 18.2532 1.39694 18.8538 1.73213 19.4544C2.40638 20.6692 3.51463 22.0914 4.8825 23.4612C6.25232 24.831 7.67444 25.9373 8.88925 26.6116C9.48988 26.9467 10.0905 27.2025 10.6388 27.3091C11.1464 27.4059 11.8788 27.4234 12.4174 26.8867L23.2965 16.0076C23.5251 16.5056 23.4748 16.9996 23.3934 17.8269C23.3353 18.3927 23.2616 19.1154 23.2519 20.1054V20.3437H23.2578C23.2984 20.8279 23.5194 21.2791 23.877 21.6079C24.2346 21.9368 24.7027 22.1193 25.1885 22.1193C25.6743 22.1193 26.1424 21.9368 26.5 21.6079C26.8576 21.2791 27.0786 20.8279 27.1192 20.3437H27.125V20.2333C27.1268 20.1577 27.1243 20.082 27.1173 20.0066C27.0107 17.5847 25.761 14.7017 23.5135 13.237C23.3943 12.9487 23.2578 12.6679 23.1047 12.3961C22.4285 11.1832 21.3222 9.76112 19.9524 8.39131C18.5826 7.0215 17.1604 5.91325 15.9456 5.239C15.345 4.90575 14.7444 4.65 14.1961 4.5415C13.6884 4.44462 12.9561 4.42912 12.4174 4.96581L11.997 5.38625ZM8.06 3.61731C8.79819 4.30706 9.69525 5.40369 10.6001 6.77931L9.23607 8.14525C8.49594 6.73669 7.95732 5.42887 7.66088 4.39037C7.53123 3.96572 7.44617 3.52871 7.40707 3.08644C7.58402 3.20269 7.80167 3.37964 8.06 3.61731ZM8.82338 11.2995C9.86963 12.9502 10.9682 14.3356 11.9369 15.2384C12.0301 15.3252 12.1394 15.3928 12.2586 15.4373C12.3778 15.4818 12.5047 15.5024 12.6319 15.4979C12.7591 15.4934 12.8841 15.4639 12.9999 15.4111C13.1157 15.3582 13.22 15.2831 13.3068 15.19C13.3935 15.0969 13.4611 14.9876 13.5056 14.8683C13.5501 14.7491 13.5707 14.6223 13.5662 14.4951C13.5617 14.3679 13.5322 14.2428 13.4794 14.127C13.4266 14.0112 13.3514 13.9069 13.2583 13.8202C12.3806 13.0026 11.2879 11.6192 10.2281 9.89287L12.3361 7.78487C12.4407 8.01866 12.5589 8.25439 12.6906 8.49206C13.3668 9.70687 14.4731 11.129 15.8429 12.4988C17.2108 13.8686 18.6329 14.9749 19.8497 15.6492C20.0861 15.7822 20.3218 15.9004 20.5569 16.0037L11.1387 25.4239L11.0069 25.4045C10.7415 25.3522 10.3443 25.203 9.82894 24.9162C8.81369 24.3505 7.53107 23.3662 6.25232 22.0875C4.97357 20.8087 3.98932 19.53 3.42357 18.5109C3.13875 17.9974 2.98763 17.6002 2.93725 17.3348L2.91788 17.2031L8.82338 11.2995ZM14.384 7.55044C14.1827 7.20948 14.0258 6.84421 13.9171 6.4635C14.1786 6.52744 14.5448 6.67662 15.0059 6.93044C16.0212 7.49619 17.3038 8.48044 18.5826 9.75919C19.4544 10.6311 20.1907 11.5049 20.7487 12.2973C20.0553 12.2499 19.3587 12.3094 18.6833 12.4736C18.1718 12.0486 17.6804 11.5999 17.2108 11.129C15.9321 9.85025 14.9498 8.56762 14.3859 7.55044H14.384Z" fill="currentColor"/>
</svg>
