<svg width="24" height="24" viewBox="0 0 24 24" fill="none" xmlns="http://www.w3.org/2000/svg">
<path d="M12.143 21.235C6.95405 21.206 2.74805 17.1 2.74805 12C2.74805 6.90001 6.95405 2.76501 12.143 2.76501C15.444 2.76501 18.307 4.58501 20.023 6.97001C20.838 8.10251 21.5895 9.70251 21.0885 12.109C20.5885 14.5155 18.1165 16.053 16.727 16.053H14.474C12.526 16.053 12.3415 17.8865 13.1565 18.751C13.9215 19.5625 13.362 21.242 12.143 21.235Z" stroke="black" stroke-width="0.5" stroke-linecap="round" stroke-linejoin="round"/>
<path d="M7.96441 10.416C7.96447 10.6268 7.92301 10.8356 7.84238 11.0304C7.76175 11.2252 7.64353 11.4022 7.49449 11.5512C7.34545 11.7003 7.16849 11.8186 6.97373 11.8993C6.77897 11.98 6.57022 12.0215 6.35941 12.0215C5.9336 12.0215 5.52524 11.8524 5.22415 11.5513C4.92306 11.2502 4.75391 10.8418 4.75391 10.416C4.75391 9.99021 4.92306 9.58184 5.22415 9.28076C5.52524 8.97967 5.9336 8.81052 6.35941 8.81052C6.57022 8.81052 6.77897 8.85205 6.97373 8.93274C7.16849 9.01343 7.34545 9.13169 7.49449 9.28079C7.64353 9.42988 7.76175 9.60687 7.84238 9.80165C7.92301 9.99644 7.96447 10.2052 7.96441 10.416ZM19.2429 10.416C19.243 10.6269 19.2015 10.8357 19.1208 11.0305C19.0402 11.2253 18.9219 11.4023 18.7728 11.5514C18.6237 11.7005 18.4467 11.8188 18.2519 11.8994C18.0571 11.9801 17.8483 12.0216 17.6374 12.0215C17.4266 12.0216 17.2178 11.9801 17.023 11.8995C16.8283 11.8189 16.6513 11.7006 16.5022 11.5516C16.3531 11.4026 16.2348 11.2256 16.1541 11.0308C16.0734 10.8361 16.0319 10.6273 16.0319 10.4165C16.0318 10.2057 16.0732 9.99684 16.1538 9.802C16.2344 9.60716 16.3526 9.43011 16.5016 9.28096C16.6507 9.13182 16.8277 9.01351 17.0225 8.93278C17.2173 8.85206 17.4261 8.81052 17.6369 8.81052C17.8478 8.81038 18.0567 8.85182 18.2515 8.93245C18.4464 9.01308 18.6235 9.13133 18.7726 9.28043C18.9218 9.42954 19.0401 9.60657 19.1208 9.80142C19.2015 9.99627 19.243 10.2051 19.2429 10.416ZM16.2214 6.30852C16.2214 6.73432 16.0523 7.14269 15.7512 7.44378C15.4501 7.74486 15.0417 7.91402 14.6159 7.91402C14.1901 7.91402 13.7817 7.74486 13.4806 7.44378C13.1796 7.14269 13.0104 6.73432 13.0104 6.30852C13.0103 6.09766 13.0518 5.88886 13.1325 5.69404C13.2131 5.49922 13.3314 5.32221 13.4805 5.17311C13.6296 5.02401 13.8066 4.90575 14.0014 4.82509C14.1962 4.74443 14.4051 4.70295 14.6159 4.70302C14.8267 4.70295 15.0355 4.74442 15.2303 4.82505C15.4251 4.90567 15.602 5.02389 15.7511 5.17293C15.9002 5.32198 16.0185 5.49893 16.0992 5.69369C16.1799 5.88845 16.2214 6.0977 16.2214 6.30852ZM10.9859 6.30852C10.9859 6.73419 10.8168 7.14243 10.5158 7.44342C10.2148 7.74442 9.80658 7.91352 9.38091 7.91352C9.06333 7.91361 8.75285 7.81952 8.48875 7.64315C8.22465 7.46677 8.01879 7.21603 7.89721 6.92264C7.77563 6.62926 7.7438 6.3064 7.80573 5.99492C7.86766 5.68344 8.02058 5.39732 8.24515 5.17276C8.46971 4.94819 8.75583 4.79527 9.06731 4.73334C9.37879 4.67141 9.70165 4.70324 9.99504 4.82482C10.2884 4.9464 10.5392 5.15226 10.7155 5.41636C10.8919 5.68046 10.986 5.99093 10.9859 6.30852Z" stroke="black" stroke-width="0.5" stroke-linecap="round" stroke-linejoin="round"/>
</svg>
