<svg width="25" height="21" viewBox="0 0 25 21" fill="currentColor" xmlns="http://www.w3.org/2000/svg">
<path d="M6.44531 0.8125C6.44531 1.0052 6.36876 1.19 6.23251 1.32626C6.09625 1.46251 5.91145 1.53906 5.71875 1.53906H1.84375C1.77952 1.53906 1.71792 1.56458 1.6725 1.61C1.62708 1.65542 1.60156 1.71702 1.60156 1.78125V3.71875C1.60156 3.91145 1.52501 4.09625 1.38876 4.23251C1.2525 4.36876 1.0677 4.44531 0.875 4.44531C0.682304 4.44531 0.4975 4.36876 0.361243 4.23251C0.224986 4.09625 0.148438 3.91145 0.148438 3.71875V1.78125C0.148438 1.33163 0.32705 0.900416 0.644983 0.582483C0.962916 0.26455 1.39413 0.0859375 1.84375 0.0859375H5.71875C5.91145 0.0859375 6.09625 0.162486 6.23251 0.298743C6.36876 0.435 6.44531 0.619804 6.44531 0.8125ZM0.875 13.1641C1.0677 13.1641 1.2525 13.0875 1.38876 12.9513C1.52501 12.815 1.60156 12.6302 1.60156 12.4375V8.5625C1.60156 8.3698 1.52501 8.185 1.38876 8.04874C1.2525 7.91249 1.0677 7.83594 0.875 7.83594C0.682304 7.83594 0.4975 7.91249 0.361243 8.04874C0.224986 8.185 0.148438 8.3698 0.148438 8.5625V12.4375C0.148438 12.6302 0.224986 12.815 0.361243 12.9513C0.4975 13.0875 0.682304 13.1641 0.875 13.1641ZM5.71875 19.4609H1.84375C1.77952 19.4609 1.71792 19.4354 1.6725 19.39C1.62708 19.3446 1.60156 19.283 1.60156 19.2188V17.2812C1.60156 17.0886 1.52501 16.9037 1.38876 16.7675C1.2525 16.6312 1.0677 16.5547 0.875 16.5547C0.682304 16.5547 0.4975 16.6312 0.361243 16.7675C0.224986 16.9037 0.148438 17.0886 0.148438 17.2812V19.2188C0.148438 19.6684 0.32705 20.0996 0.644983 20.4175C0.962916 20.7354 1.39413 20.9141 1.84375 20.9141H5.71875C5.91145 20.9141 6.09625 20.8375 6.23251 20.7013C6.36876 20.565 6.44531 20.3802 6.44531 20.1875C6.44531 19.9948 6.36876 19.81 6.23251 19.6737C6.09625 19.5375 5.91145 19.4609 5.71875 19.4609ZM14.4375 19.4609H10.5625C10.3698 19.4609 10.185 19.5375 10.0487 19.6737C9.91249 19.81 9.83594 19.9948 9.83594 20.1875C9.83594 20.3802 9.91249 20.565 10.0487 20.7013C10.185 20.8375 10.3698 20.9141 10.5625 20.9141H14.4375C14.6302 20.9141 14.815 20.8375 14.9513 20.7013C15.0875 20.565 15.1641 20.3802 15.1641 20.1875C15.1641 19.9948 15.0875 19.81 14.9513 19.6737C14.815 19.5375 14.6302 19.4609 14.4375 19.4609ZM24.125 16.5547C23.9323 16.5547 23.7475 16.6312 23.6112 16.7675C23.475 16.9037 23.3984 17.0886 23.3984 17.2812V19.2188C23.3984 19.283 23.3729 19.3446 23.3275 19.39C23.2821 19.4354 23.2205 19.4609 23.1562 19.4609H19.2812C19.0886 19.4609 18.9037 19.5375 18.7675 19.6737C18.6312 19.81 18.5547 19.9948 18.5547 20.1875C18.5547 20.3802 18.6312 20.565 18.7675 20.7013C18.9037 20.8375 19.0886 20.9141 19.2812 20.9141H23.1562C23.6059 20.9141 24.0371 20.7354 24.355 20.4175C24.6729 20.0996 24.8516 19.6684 24.8516 19.2188V17.2812C24.8516 17.0886 24.775 16.9037 24.6388 16.7675C24.5025 16.6312 24.3177 16.5547 24.125 16.5547ZM24.125 7.83594C23.9323 7.83594 23.7475 7.91249 23.6112 8.04874C23.475 8.185 23.3984 8.3698 23.3984 8.5625V12.4375C23.3984 12.6302 23.475 12.815 23.6112 12.9513C23.7475 13.0875 23.9323 13.1641 24.125 13.1641C24.3177 13.1641 24.5025 13.0875 24.6388 12.9513C24.775 12.815 24.8516 12.6302 24.8516 12.4375V8.5625C24.8516 8.3698 24.775 8.185 24.6388 8.04874C24.5025 7.91249 24.3177 7.83594 24.125 7.83594ZM23.1562 0.0859375H19.2812C19.0886 0.0859375 18.9037 0.162486 18.7675 0.298743C18.6312 0.435 18.5547 0.619804 18.5547 0.8125C18.5547 1.0052 18.6312 1.19 18.7675 1.32626C18.9037 1.46251 19.0886 1.53906 19.2812 1.53906H23.1562C23.2205 1.53906 23.2821 1.56458 23.3275 1.61C23.3729 1.65542 23.3984 1.71702 23.3984 1.78125V3.71875C23.3984 3.91145 23.475 4.09625 23.6112 4.23251C23.7475 4.36876 23.9323 4.44531 24.125 4.44531C24.3177 4.44531 24.5025 4.36876 24.6388 4.23251C24.775 4.09625 24.8516 3.91145 24.8516 3.71875V1.78125C24.8516 1.33163 24.6729 0.900416 24.355 0.582483C24.0371 0.26455 23.6059 0.0859375 23.1562 0.0859375ZM14.4375 0.0859375H10.5625C10.3698 0.0859375 10.185 0.162486 10.0487 0.298743C9.91249 0.435 9.83594 0.619804 9.83594 0.8125C9.83594 1.0052 9.91249 1.19 10.0487 1.32626C10.185 1.46251 10.3698 1.53906 10.5625 1.53906H14.4375C14.6302 1.53906 14.815 1.46251 14.9513 1.32626C15.0875 1.19 15.1641 1.0052 15.1641 0.8125C15.1641 0.619804 15.0875 0.435 14.9513 0.298743C14.815 0.162486 14.6302 0.0859375 14.4375 0.0859375Z" fill="currentColor"/>
</svg>
