<svg width="15" height="14" viewBox="0 0 15 14" fill="none" xmlns="http://www.w3.org/2000/svg">
<path d="M11.435 13.75C11.245 13.75 11.055 13.68 10.905 13.53C10.7655 13.3889 10.6873 13.1984 10.6873 13C10.6873 12.8016 10.7655 12.6111 10.905 12.47L12.905 10.47C13.195 10.18 13.675 10.18 13.965 10.47C14.255 10.76 14.255 11.24 13.965 11.53L11.965 13.53C11.815 13.68 11.625 13.75 11.435 13.75ZM6.435 13.75C6.245 13.75 6.055 13.68 5.905 13.53C5.76552 13.3889 5.6873 13.1984 5.6873 13C5.6873 12.8016 5.76552 12.6111 5.905 12.47L12.905 5.47C13.195 5.18 13.675 5.18 13.965 5.47C14.255 5.76 14.255 6.24 13.965 6.53L6.965 13.53C6.815 13.68 6.625 13.75 6.435 13.75ZM1.435 13.75C1.245 13.75 1.055 13.68 0.905004 13.53C0.765523 13.3889 0.687302 13.1984 0.687302 13C0.687302 12.8016 0.765523 12.6111 0.905004 12.47L12.905 0.470002C13.195 0.180002 13.675 0.180002 13.965 0.470002C14.255 0.760002 14.255 1.24 13.965 1.53L1.965 13.53C1.815 13.68 1.625 13.75 1.435 13.75Z" fill="currentColor"/>
</svg>
