<svg width="28" height="22" viewBox="0 0 28 22" fill="currentColor" xmlns="http://www.w3.org/2000/svg">
<g clip-path="url(#clip0_1_2)">
<path d="M15 10C15.2708 10 15.5052 10.099 15.7031 10.2969C15.901 10.4948 16 10.7292 16 11C16 11.2708 15.901 11.5052 15.7031 11.7031C15.5052 11.901 15.2708 12 15 12C14.7292 12 14.4948 11.901 14.2969 11.7031C14.099 11.5052 14 11.2708 14 11C14 10.7292 14.099 10.4948 14.2969 10.2969C14.4948 10.099 14.7292 10 15 10ZM19.6875 11L27.6094 17.2188C27.901 17.4271 28.0312 17.7188 28 18.0938C27.9479 18.4583 27.7656 18.724 27.4531 18.8906L25.4531 19.8906C25.3177 19.9635 25.1667 20 25 20C24.8229 20 24.6615 19.9583 24.5156 19.875L13.7344 13.8281L12.0156 14.8594C11.9323 14.901 11.8698 14.9271 11.8281 14.9375C11.974 15.4479 12.026 15.9531 11.9844 16.4531C11.9115 17.2552 11.6198 18.0234 11.1094 18.7578C10.599 19.4922 9.91146 20.1354 9.04688 20.6875C7.67188 21.5625 6.22917 22 4.71875 22C3.30208 22 2.14583 21.5938 1.25 20.7812C0.3125 19.9062 -0.098958 18.8281 0.0156253 17.5469C0.088542 16.7552 0.380209 15.9896 0.890625 15.25C1.40104 14.5104 2.08333 13.8646 2.9375 13.3125C4.3125 12.4375 5.76042 12 7.28125 12C8.14583 12 8.93229 12.1615 9.64062 12.4844C9.73438 12.349 9.84896 12.2344 9.98438 12.1406L11.8906 11L9.98438 9.85938C9.84896 9.76562 9.73438 9.65104 9.64062 9.51562C8.93229 9.83854 8.14583 10 7.28125 10C5.76042 10 4.3125 9.5625 2.9375 8.6875C2.08333 8.13542 1.40104 7.48958 0.890625 6.75C0.380209 6.01042 0.088542 5.24479 0.0156253 4.45312C-0.036458 3.83854 0.0442712 3.25 0.257813 2.6875C0.471354 2.125 0.802084 1.64062 1.25 1.23438C2.13542 0.411458 3.29167 0 4.71875 0C6.22917 0 7.67188 0.4375 9.04688 1.3125C9.91146 1.85417 10.599 2.49479 11.1094 3.23438C11.6198 3.97396 11.9115 4.74479 11.9844 5.54688C12.026 6.04688 11.974 6.55208 11.8281 7.0625C11.8698 7.07292 11.9323 7.09896 12.0156 7.14062L13.7344 8.17188L24.5156 2.125C24.6615 2.04167 24.8229 2 25 2C25.1667 2 25.3177 2.03646 25.4531 2.10938L27.4531 3.10938C27.7656 3.27604 27.9479 3.54167 28 3.90625C28.0312 4.28125 27.901 4.57292 27.6094 4.78125L19.6875 11ZM9.04688 6.9375C9.52604 6.5 9.63542 5.9375 9.375 5.25C9.11458 4.5625 8.5625 3.95312 7.71875 3.42188C6.76042 2.80729 5.76042 2.5 4.71875 2.5C3.94792 2.5 3.35938 2.6875 2.95313 3.0625C2.47396 3.5 2.36458 4.0625 2.625 4.75C2.88542 5.4375 3.4375 6.04688 4.28125 6.57812C5.23958 7.19271 6.23958 7.5 7.28125 7.5C8.05208 7.5 8.64062 7.3125 9.04688 6.9375ZM7.71875 18.5781C8.5625 18.0469 9.11458 17.4375 9.375 16.75C9.63542 16.0625 9.52604 15.5 9.04688 15.0625C8.64062 14.6875 8.05208 14.5 7.28125 14.5C6.23958 14.5 5.23958 14.8073 4.28125 15.4219C3.4375 15.9531 2.88542 16.5625 2.625 17.25C2.36458 17.9375 2.47396 18.5 2.95313 18.9375C3.35938 19.3125 3.94792 19.5 4.71875 19.5C5.76042 19.5 6.76042 19.1927 7.71875 18.5781ZM10.5 9L12 9.90625V9.73438C12 9.35938 12.1719 9.06771 12.5156 8.85938L12.7344 8.73438L11.5 8L11.0938 8.40625C11.0625 8.4375 11.0104 8.49479 10.9375 8.57812C10.8646 8.66146 10.8021 8.72396 10.75 8.76562C10.7292 8.78646 10.7083 8.80469 10.6875 8.82031C10.6667 8.83594 10.651 8.84896 10.6406 8.85938L10.5 9ZM14 12.5L15.5 13L27 4L25 3L13 9.73438V11.5L10.5 13L10.6406 13.125C10.6615 13.1458 10.6979 13.1771 10.75 13.2188C10.7917 13.2604 10.849 13.3229 10.9219 13.4062C10.9948 13.4896 11.0521 13.5521 11.0938 13.5938L11.5 14L14 12.5ZM25 19L27 18L18.875 11.625L16.1094 13.7812C16.0885 13.8125 16.0208 13.849 15.9062 13.8906L25 19Z" fill="currentColor"/>
</g>
<defs>
<clipPath id="clip0_1_2">
<rect width="28" height="22" fill="white"/>
</clipPath>
</defs>
</svg>
