<svg width="22" height="26" viewBox="0 0 22 26" fill="none" xmlns="http://www.w3.org/2000/svg">
<path d="M8.875 -1.36532e-06C8.651 0.0240796 8.44169 0.123095 8.281 0.280999L3.562 5H1C0.449 5 0 5.449 0 6V8C0 8.551 0.449 9 1 9H1.25L3.531 22.719V22.781C3.694 23.569 4 24.322 4.563 24.938C4.86476 25.2686 5.23136 25.5335 5.63997 25.7162C6.04857 25.8989 6.49043 25.9955 6.938 26H15.062C15.5073 25.9995 15.9478 25.9077 16.3562 25.7304C16.7647 25.5531 17.1325 25.2939 17.437 24.969C18.008 24.354 18.32 23.564 18.469 22.75V22.719L20.78 9H21C21.551 9 22 8.551 22 8V6C22 5.449 21.551 5 21 5H19.437L16.625 1.5C16.5415 1.39122 16.4317 1.30544 16.3059 1.25069C16.1801 1.19594 16.0425 1.17403 15.906 1.187C15.7836 1.20167 15.6662 1.24445 15.563 1.312L12.688 3.25L9.717 0.280999C9.60786 0.172646 9.47521 0.0909251 9.32935 0.042189C9.18349 -0.00654709 9.02835 -0.0209847 8.876 -1.36532e-06H8.875ZM9 2.438L11.563 5H6.436L9 2.438ZM15.844 3.094L17.375 5H14.437L13.844 4.406L15.844 3.094ZM3.25 9H3.938L5.125 10.188L3.687 11.594L3.25 9ZM5.344 9H6.281L5.812 9.469L5.344 9ZM7.656 9H9.344L10.25 9.906L8.25 11.906L6.5 10.156L7.656 9ZM10.781 9H11.125L10.969 9.188L10.78 9H10.781ZM12.562 9H14.25L15.406 10.156L13.656 11.906L11.656 9.875L12.562 9ZM15.625 9H16.563L16.093 9.469L15.625 9ZM17.969 9H18.781L18.344 11.688L16.812 10.156L17.969 9ZM10.937 10.594L12.969 12.594L10.938 14.594L8.938 12.594L10.937 10.594ZM5.813 10.875L7.531 12.594L5.531 14.594L3.906 12.969L3.875 12.813L5.813 10.875ZM16.093 10.875L18.093 12.875L16.375 14.625L14.375 12.594L16.093 10.875ZM8.25 13.313L10.25 15.313L8.25 17.313L6.25 15.313L8.25 13.313ZM13.656 13.313L15.687 15.313L13.687 17.313L11.657 15.313L13.656 13.313ZM17.844 14.563L17.625 15.875L17.062 15.312L17.844 14.563ZM4.187 14.656L4.844 15.312L4.375 15.782L4.187 14.656ZM5.532 16L7.532 18L5.532 20.031L4.97 19.469L4.563 16.969L5.532 16ZM10.939 16L12.969 18.031L10.969 20.031L8.939 18L10.939 16ZM16.376 16L17.439 17.063L17.032 19.343L16.376 20L14.376 18L16.376 16ZM8.251 18.719L10.251 20.719L8.251 22.75L6.251 20.75L8.251 18.719ZM13.657 18.719L15.657 20.719L13.657 22.719L11.657 20.719L13.657 18.719ZM5.563 21.437L7.563 23.437L7 24H6.937C6.546 24 6.316 23.87 6.063 23.594C5.76736 23.2548 5.56294 22.846 5.469 22.406V22.375L5.344 21.625L5.562 21.437H5.563ZM10.97 21.437L12.97 23.437L12.407 24H9.5L8.937 23.437L10.969 21.437H10.97ZM16.376 21.437L16.657 21.719L16.532 22.375C16.53 22.385 16.534 22.395 16.532 22.406C16.437 22.896 16.216 23.328 15.97 23.594C15.718 23.864 15.461 24 15.063 24H14.938L14.376 23.437L16.376 21.437Z" fill="black"/>
</svg>
